# xmcd
#
# Track frame offsets:
#	150
#	10040
#	27312
#	44059
#	60138
#	76837
#	94106
#	110847
#	126124
#	141800
#	160022
#	172568
#	186476
#	199958
#	218155
#	232777
#	254271
#	267351
#	281930
#	298622
#	309333
#
# Disc length: 4322 seconds
#
# Revision: 1
# Processed by: cddbd v1.5.2PL0 Copyright (c) Steve Scherf et al.
# Submitted via: dBpowerAMP V4.0
#
DISCID=2510e015
DTITLE=Various Artist - Hott Urban Volume 46 Can
DYEAR=2019
DGENRE=Urban
TTITLE0=Blueface - Thotiana
TTITLE1=Megan Thee Stallion - Big Ole Freak
TTITLE2=Kiana Lede - Ex
TTITLE3=J. Cole - Middle Child
TTITLE4=Lightskinkeisha and Bsmyth - Ride Good
TTITLE5=Future ft. Travis Scott - First Off
TTITLE6=Meek Mill ft. Ella Mai - 24/7
TTITLE7=Kehlani ft. TY Dolla $ign - Nights Like This
TTITLE8=YK Osiris - Valentine
TTITLE9=The-Dream - Bedroom
TTITLE10=Lil Mosey - Noticed
TTITLE11=Lil Keed - Nameless
TTITLE12=Rich The Kid - Splashin'
TTITLE13=H.E.R. - As I Am
TTITLE14=Mustard ft. Migos - Pure Water
TTITLE15=Yella Beezy ft. Kevin Gates - What I Did
TTITLE16=Sam Smith and Normani - Dancing With A Stranger
TTITLE17=Big Boi ft. Sleepy Brown - Doin' It
TTITLE18=Sneakk ft. Tyga And YG - Spray
TTITLE19=Summer Walker - Girls Need Love
TTITLE20=Khalid - Talk
EXTD=
EXTT0=
EXTT1=
EXTT2=
EXTT3=
EXTT4=
EXTT5=
EXTT6=
EXTT7=
EXTT8=
EXTT9=
EXTT10=
EXTT11=
EXTT12=
EXTT13=
EXTT14=
EXTT15=
EXTT16=
EXTT17=
EXTT18=
EXTT19=
EXTT20=
PLAYORDER=
